# xmcd
#
# Track frame offsets:
#	150
#	12617
#	28402
#	46380
#	58443
#	76174
#	91480
#	107489
#	117509
#	135257
#	145960
#
# Disc length: 2217 seconds
#
# Revision: 1
# Processed by: cddbd v1.5.2PL0 Copyright (c) Steve Scherf et al.
# Submitted via: audiograbber 1.83.01
#
DISCID=9a08a70b
DTITLE=The Allen Family - Hope For Tomorrow
DYEAR=2015
DGENRE=Gospel
TTITLE0=How Big
TTITLE1=Living In The Light
TTITLE2=Carry Your Candle
TTITLE3=Keys To The Kingdom
TTITLE4=Standing Up For Me
TTITLE5=Hope Saved My Life
TTITLE6=God Loves You
TTITLE7=Sing Your Blues Away
TTITLE8=Come To The Fountain
TTITLE9=I've Been Changed
TTITLE10=Jesus Saves/He Is Able
EXTD=
EXTT0=
EXTT1=
EXTT2=
EXTT3=
EXTT4=
EXTT5=
EXTT6=
EXTT7=
EXTT8=
EXTT9=
EXTT10=
PLAYORDER=
